<?xml version="1.0" encoding="UTF-8" standalone="no"?><!-- Generator: Gravit.io --><svg xmlns="http://www.w3.org/2000/svg" xmlns:xlink="http://www.w3.org/1999/xlink" style="isolation:isolate" viewBox="-296 520 652.359 128.309" width="652.359pt" height="128.309pt"><defs><clipPath id="_clipPath_Ra7ncGLvW8eZSBHKst7y7lWgn6Tezv0n"><rect x="-296" y="520" width="652.359" height="128.309"/></clipPath></defs><g clip-path="url(#_clipPath_Ra7ncGLvW8eZSBHKst7y7lWgn6Tezv0n)"><g><g><g><linearGradient id="_lgradient_9" x1="0" y1="0.5" x2="3.175737619038711" y2="0.48783626555724413" gradientTransform="matrix(29.95,0,0,95.358,-81.97,520)" gradientUnits="userSpaceOnUse"><stop offset="0%" stop-opacity="1" style="stop-color:rgb(70,145,53)"/><stop offset="98.26086956521739%" stop-opacity="1" style="stop-color:rgb(2,121,2)"/></linearGradient><rect x="-81.97" y="520" width="29.95" height="95.358" transform="matrix(1,0,0,1,0,0)" fill="url(#_lgradient_9)"/><linearGradient id="_lgradient_10" x1="0" y1="0.5" x2="2.496623855603468" y2="0.5052667106783798" gradientTransform="matrix(29.95,0,0,77.548,-41.414,537.809)" gradientUnits="userSpaceOnUse"><stop offset="1.7391304347826086%" stop-opacity="1" style="stop-color:rgb(70,145,53)"/><stop offset="98.69565217391305%" stop-opacity="1" style="stop-color:rgb(2,121,2)"/></linearGradient><rect x="-41.414" y="537.809" width="29.95" height="77.548" transform="matrix(1,0,0,1,0,0)" fill="url(#_lgradient_10)"/><linearGradient id="_lgradient_11" x1="0" y1="0.5" x2="1.6827083565149645" y2="0.4878438265835321" gradientTransform="matrix(29.95,0,0,63.065,-0.668,552.293)" gradientUnits="userSpaceOnUse"><stop offset="0%" stop-opacity="1" style="stop-color:rgb(70,145,53)"/><stop offset="99.1304347826087%" stop-opacity="1" style="stop-color:rgb(2,121,2)"/></linearGradient><rect x="-0.668" y="552.293" width="29.95" height="63.065" transform="matrix(1,0,0,1,0,0)" fill="url(#_lgradient_11)"/></g></g><defs><filter id="eDRW7hW4haETUfXnVtHEen7baUUOI85q" x="-200%" y="-200%" width="400%" height="400%" filterUnits="objectBoundingBox" color-interpolation-filters="sRGB"><feGaussianBlur xmlns="http://www.w3.org/2000/svg" in="SourceGraphic" stdDeviation="2.146804531419514"/><feOffset xmlns="http://www.w3.org/2000/svg" dx="0" dy="0" result="pf_100_offsetBlur"/><feFlood xmlns="http://www.w3.org/2000/svg" flood-color="#000000" flood-opacity="0.65"/><feComposite xmlns="http://www.w3.org/2000/svg" in2="pf_100_offsetBlur" operator="in" result="pf_100_dropShadow"/><feBlend xmlns="http://www.w3.org/2000/svg" in="SourceGraphic" in2="pf_100_dropShadow" mode="normal"/></filter></defs><g filter="url(#eDRW7hW4haETUfXnVtHEen7baUUOI85q)"><radialGradient id="_rgradient_3" fx="0.4241138313448861" fy="0.7067468673188513" cx="0.5" cy="0.5" r="0.5" gradientTransform="matrix(260.1,108.834,309.768,-228.126,-328.273,673.205)" gradientUnits="userSpaceOnUse"><stop offset="2.1739130434782608%" stop-opacity="1" style="stop-color:rgb(206,110,35)"/><stop offset="40.43478260869565%" stop-opacity="1" style="stop-color:rgb(200,88,0)"/><stop offset="100%" stop-opacity="1" style="stop-color:rgb(111,49,1)"/></radialGradient><path d=" M -86.149 590.854 C -73.219 580.129 -62.898 569.339 -46.207 563.943 Q -37.484 561.122 -20.424 559.511 C -16.815 560.366 -18.674 563.197 -20.424 563.943 C -26.759 566.641 -36.102 568.912 -39.23 571.288 C -48.962 578.682 -58.668 588.891 -55.756 594.843 C -54 598.43 -27.478 610.805 -9.786 611.3 Q 11.715 611.902 45.278 590.854 L 57.458 583.445 Q 63.4 578.834 66.576 580.849 Q 71.159 583.756 62.547 590.854 L 39.412 610.229 Q 6.866 636.596 -15.865 640.622 C -40.149 644.924 -59.125 627.564 -83.489 629.225 Q -100.792 630.404 -130.978 640.622 Q -104.573 606.136 -86.149 590.854 Z " fill="url(#_rgradient_3)"/></g><path d=" M -246.324 620.216 L -258.066 620.216 L -261.793 607.981 L -280.531 607.981 L -284.258 620.216 L -296 620.216 L -277.859 568.606 L -264.535 568.606 L -246.324 620.216 Z  M -277.789 598.841 L -264.395 598.841 L -264.395 598.841 Q -269.562 582.212 -270.213 580.032 L -270.213 580.032 L -270.213 580.032 Q -270.863 577.852 -271.145 576.587 L -271.145 576.587 L -271.145 576.587 Q -272.305 581.087 -277.789 598.841 L -277.789 598.841 Z  M -220.344 600.423 L -220.344 591.352 L -199.953 591.352 L -199.953 618.001 L -199.953 618.001 Q -204.91 619.618 -209.287 620.268 L -209.287 620.268 L -209.287 620.268 Q -213.664 620.919 -218.234 620.919 L -218.234 620.919 L -218.234 620.919 Q -229.871 620.919 -236.006 614.081 L -236.006 614.081 L -236.006 614.081 Q -242.141 607.243 -242.141 594.446 L -242.141 594.446 L -242.141 594.446 Q -242.141 582.001 -235.021 575.04 L -235.021 575.04 L -235.021 575.04 Q -227.902 568.079 -215.281 568.079 L -215.281 568.079 L -215.281 568.079 Q -207.371 568.079 -200.023 571.243 L -200.023 571.243 L -203.645 579.962 L -203.645 579.962 Q -209.27 577.149 -215.352 577.149 L -215.352 577.149 L -215.352 577.149 Q -222.418 577.149 -226.672 581.895 L -226.672 581.895 L -226.672 581.895 Q -230.926 586.642 -230.926 594.657 L -230.926 594.657 L -230.926 594.657 Q -230.926 603.024 -227.498 607.436 L -227.498 607.436 L -227.498 607.436 Q -224.07 611.849 -217.531 611.849 L -217.531 611.849 L -217.531 611.849 Q -214.121 611.849 -210.605 611.145 L -210.605 611.145 L -210.605 600.423 L -220.344 600.423 Z  M -176.82 577.747 L -176.82 591.634 L -173.305 591.634 L -173.305 591.634 Q -168.137 591.634 -165.676 589.911 L -165.676 589.911 L -165.676 589.911 Q -163.215 588.188 -163.215 584.497 L -163.215 584.497 L -163.215 584.497 Q -163.215 580.841 -165.729 579.294 L -165.729 579.294 L -165.729 579.294 Q -168.242 577.747 -173.516 577.747 L -173.516 577.747 L -176.82 577.747 Z  M -171.02 600.493 L -176.82 600.493 L -176.82 620.216 L -187.719 620.216 L -187.719 568.817 L -172.742 568.817 L -172.742 568.817 Q -162.266 568.817 -157.238 572.632 L -157.238 572.632 L -157.238 572.632 Q -152.211 576.446 -152.211 584.216 L -152.211 584.216 L -152.211 584.216 Q -152.211 588.751 -154.707 592.284 L -154.707 592.284 L -154.707 592.284 Q -157.203 595.817 -161.773 597.821 L -161.773 597.821 L -161.773 597.821 Q -150.172 615.153 -146.656 620.216 L -146.656 620.216 L -158.75 620.216 L -171.02 600.493 Z  M -129.289 620.216 L -140.187 620.216 L -140.187 568.817 L -129.289 568.817 L -129.289 620.216 Z " fill="rgb(113,110,110)"/><path d=" M 79.469 620.216 L 79.469 568.817 L 95.465 568.817 L 95.465 568.817 Q 106.398 568.817 111.338 571.929 L 111.338 571.929 L 111.338 571.929 Q 116.277 575.04 116.277 581.825 L 116.277 581.825 L 116.277 581.825 Q 116.277 586.431 114.115 589.384 L 114.115 589.384 L 114.115 589.384 Q 111.953 592.337 108.367 592.934 L 108.367 592.934 L 108.367 593.286 L 108.367 593.286 Q 113.254 594.376 115.416 597.364 L 115.416 597.364 L 115.416 597.364 Q 117.578 600.352 117.578 605.309 L 117.578 605.309 L 117.578 605.309 Q 117.578 612.341 112.498 616.278 L 112.498 616.278 L 112.498 616.278 Q 107.418 620.216 98.699 620.216 L 98.699 620.216 L 79.469 620.216 L 79.469 620.216 Z  M 90.367 577.747 L 90.367 589.173 L 96.695 589.173 L 96.695 589.173 Q 101.125 589.173 103.111 587.802 L 103.111 587.802 L 103.111 587.802 Q 105.098 586.431 105.098 583.267 L 105.098 583.267 L 105.098 583.267 Q 105.098 580.313 102.936 579.03 L 102.936 579.03 L 102.936 579.03 Q 100.773 577.747 96.098 577.747 L 96.098 577.747 L 90.367 577.747 L 90.367 577.747 Z  M 97.117 597.821 L 90.367 597.821 L 90.367 611.216 L 97.469 611.216 L 97.469 611.216 Q 101.969 611.216 104.113 609.493 L 104.113 609.493 L 104.113 609.493 Q 106.258 607.77 106.258 604.22 L 106.258 604.22 L 106.258 604.22 Q 106.258 597.821 97.117 597.821 L 97.117 597.821 L 97.117 597.821 Z  M 174.496 594.446 L 174.496 594.446 L 174.496 594.446 Q 174.496 607.208 168.168 614.063 L 168.168 614.063 L 168.168 614.063 Q 161.84 620.919 150.027 620.919 L 150.027 620.919 L 150.027 620.919 Q 138.215 620.919 131.887 614.063 L 131.887 614.063 L 131.887 614.063 Q 125.559 607.208 125.559 594.376 L 125.559 594.376 L 125.559 594.376 Q 125.559 581.544 131.904 574.776 L 131.904 574.776 L 131.904 574.776 Q 138.25 568.009 150.098 568.009 L 150.098 568.009 L 150.098 568.009 Q 161.945 568.009 168.221 574.829 L 168.221 574.829 L 168.221 574.829 Q 174.496 581.649 174.496 594.446 Z  M 136.984 594.446 L 136.984 594.446 L 136.984 594.446 Q 136.984 603.059 140.254 607.419 L 140.254 607.419 L 140.254 607.419 Q 143.523 611.778 150.027 611.778 L 150.027 611.778 L 150.027 611.778 Q 163.07 611.778 163.07 594.446 L 163.07 594.446 L 163.07 594.446 Q 163.07 577.079 150.098 577.079 L 150.098 577.079 L 150.098 577.079 Q 143.594 577.079 140.289 581.456 L 140.289 581.456 L 140.289 581.456 Q 136.984 585.833 136.984 594.446 Z  M 216.121 568.817 L 226.984 568.817 L 226.984 602.075 L 226.984 602.075 Q 226.984 607.77 224.436 612.059 L 224.436 612.059 L 224.436 612.059 Q 221.887 616.349 217.07 618.634 L 217.07 618.634 L 217.07 618.634 Q 212.254 620.919 205.68 620.919 L 205.68 620.919 L 205.68 620.919 Q 195.766 620.919 190.281 615.839 L 190.281 615.839 L 190.281 615.839 Q 184.797 610.759 184.797 601.934 L 184.797 601.934 L 184.797 568.817 L 195.66 568.817 L 195.66 600.282 L 195.66 600.282 Q 195.66 606.224 198.051 609.001 L 198.051 609.001 L 198.051 609.001 Q 200.441 611.778 205.961 611.778 L 205.961 611.778 L 205.961 611.778 Q 211.305 611.778 213.713 608.983 L 213.713 608.983 L 213.713 608.983 Q 216.121 606.188 216.121 600.212 L 216.121 600.212 L 216.121 568.817 L 216.121 568.817 Z  M 250.469 577.747 L 250.469 591.634 L 253.984 591.634 L 253.984 591.634 Q 259.152 591.634 261.613 589.911 L 261.613 589.911 L 261.613 589.911 Q 264.074 588.188 264.074 584.497 L 264.074 584.497 L 264.074 584.497 Q 264.074 580.841 261.561 579.294 L 261.561 579.294 L 261.561 579.294 Q 259.047 577.747 253.773 577.747 L 253.773 577.747 L 250.469 577.747 L 250.469 577.747 Z  M 256.27 600.493 L 250.469 600.493 L 250.469 620.216 L 239.57 620.216 L 239.57 568.817 L 254.547 568.817 L 254.547 568.817 Q 265.023 568.817 270.051 572.632 L 270.051 572.632 L 270.051 572.632 Q 275.078 576.446 275.078 584.216 L 275.078 584.216 L 275.078 584.216 Q 275.078 588.751 272.582 592.284 L 272.582 592.284 L 272.582 592.284 Q 270.086 595.817 265.516 597.821 L 265.516 597.821 L 265.516 597.821 Q 277.117 615.153 280.633 620.216 L 280.633 620.216 L 268.539 620.216 L 256.27 600.493 L 256.27 600.493 Z  M 317.441 605.942 L 317.441 605.942 L 317.441 605.942 Q 317.441 612.903 312.432 616.911 L 312.432 616.911 L 312.432 616.911 Q 307.422 620.919 298.492 620.919 L 298.492 620.919 L 298.492 620.919 Q 290.266 620.919 283.938 617.825 L 283.938 617.825 L 283.938 607.7 L 283.938 607.7 Q 289.141 610.02 292.744 610.97 L 292.744 610.97 L 292.744 610.97 Q 296.348 611.919 299.336 611.919 L 299.336 611.919 L 299.336 611.919 Q 302.922 611.919 304.838 610.548 L 304.838 610.548 L 304.838 610.548 Q 306.754 609.177 306.754 606.47 L 306.754 606.47 L 306.754 606.47 Q 306.754 604.958 305.91 603.78 L 305.91 603.78 L 305.91 603.78 Q 305.066 602.602 303.432 601.513 L 303.432 601.513 L 303.432 601.513 Q 301.797 600.423 296.77 598.032 L 296.77 598.032 L 296.77 598.032 Q 292.059 595.817 289.703 593.778 L 289.703 593.778 L 289.703 593.778 Q 287.348 591.739 285.941 589.032 L 285.941 589.032 L 285.941 589.032 Q 284.535 586.325 284.535 582.704 L 284.535 582.704 L 284.535 582.704 Q 284.535 575.884 289.158 571.981 L 289.158 571.981 L 289.158 571.981 Q 293.781 568.079 301.938 568.079 L 301.938 568.079 L 301.938 568.079 Q 305.945 568.079 309.584 569.028 L 309.584 569.028 L 309.584 569.028 Q 313.223 569.977 317.195 571.7 L 317.195 571.7 L 313.68 580.173 L 313.68 580.173 Q 309.566 578.485 306.877 577.817 L 306.877 577.817 L 306.877 577.817 Q 304.188 577.149 301.586 577.149 L 301.586 577.149 L 301.586 577.149 Q 298.492 577.149 296.84 578.591 L 296.84 578.591 L 296.84 578.591 Q 295.188 580.032 295.188 582.352 L 295.188 582.352 L 295.188 582.352 Q 295.188 583.794 295.855 584.866 L 295.855 584.866 L 295.855 584.866 Q 296.523 585.938 297.982 586.94 L 297.982 586.94 L 297.982 586.94 Q 299.441 587.942 304.891 590.544 L 304.891 590.544 L 304.891 590.544 Q 312.098 593.989 314.77 597.452 L 314.77 597.452 L 314.77 597.452 Q 317.441 600.915 317.441 605.942 Z  M 356.359 611.216 L 356.359 620.216 L 326.758 620.216 L 326.758 568.817 L 356.359 568.817 L 356.359 577.747 L 337.656 577.747 L 337.656 589.032 L 355.059 589.032 L 355.059 597.962 L 337.656 597.962 L 337.656 611.216 L 356.359 611.216 L 356.359 611.216 Z " fill="rgb(113,110,110)"/></g></g></svg>